<svg width="20" height="25" viewBox="0 0 20 25" fill="none" xmlns="http://www.w3.org/2000/svg">
<path d="M16.8664 10.1578H5.26193V6.74505C5.25926 4.39682 7.16921 2.48682 9.5145 2.48414C11.8627 2.48414 13.7727 4.39434 13.7754 6.73965C13.7781 6.98639 13.8779 7.21361 14.0415 7.3745C14.2051 7.53807 14.4269 7.63787 14.6763 7.63787H15.3611C15.86 7.63787 16.262 7.23584 16.262 6.7396H16.2594C16.2566 3.02188 13.2322 -0.00247373 9.51431 1.51829e-06C5.79678 0.00270885 2.77518 3.02733 2.77518 6.74505L2.77789 10.1578H2.31203C1.03401 10.1578 -0.00291464 11.1974 6.15529e-06 12.4754V22.6358C6.15529e-06 23.9139 1.03961 24.9508 2.31763 24.9508L16.728 24.9425C18.006 24.9425 19.043 23.9056 19.04 22.6275V12.4647C19.04 11.2365 18.078 10.2329 16.8665 10.158L16.8664 10.1578Z" fill="white"/>
</svg>
